<svg xmlns="http://www.w3.org/2000/svg" version="1.1" xmlns:xlink="http://www.w3.org/1999/xlink" xmlns:svgjs="http://svgjs.dev/svgjs" viewBox="0 0 800 800"><defs><linearGradient x1="50%" y1="0%" x2="50%" y2="100%" id="ffflurry-grad" gradientTransform="rotate(270)"><stop stop-color="#1e73be" stop-opacity="1" offset="0%"></stop><stop stop-color="hsl(0, 0%, 100%)" stop-opacity="1" offset="45%"></stop><stop stop-color="hsl(0, 0%, 94%)" stop-opacity="1" offset="100%"></stop></linearGradient></defs><rect width="100%" height="100%" fill="#1e73be"></rect><g fill="url(#ffflurry-grad)"><rect width="462" height="3" x="372" y="177.5" rx="1.5" transform="rotate(45, 603, 179)" opacity="0.85"></rect><rect width="533" height="3" x="-29.5" y="664.5" rx="1.5" transform="rotate(45, 237, 666)" opacity="0.07"></rect><rect width="182" height="3" x="177" y="157.5" rx="1.5" transform="rotate(45, 268, 159)" opacity="0.60"></rect><rect width="620" height="3" x="-150" y="65.5" rx="1.5" transform="rotate(45, 160, 67)" opacity="0.88"></rect><rect width="25" height="3" x="447.5" y="307.5" rx="1.5" transform="rotate(45, 460, 309)" opacity="0.29"></rect><rect width="615" height="3" x="385.5" y="149.5" rx="1.5" transform="rotate(45, 693, 151)" opacity="0.99"></rect><rect width="533" height="3" x="62.5" y="442.5" rx="1.5" transform="rotate(45, 329, 444)" opacity="0.99"></rect><rect width="464" height="3" x="-52" y="315.5" rx="1.5" transform="rotate(45, 180, 317)" opacity="0.77"></rect><rect width="119" height="3" x="473.5" y="116.5" rx="1.5" transform="rotate(45, 533, 118)" opacity="0.29"></rect><rect width="557" height="3" x="356.5" y="555.5" rx="1.5" transform="rotate(45, 635, 557)" opacity="0.65"></rect><rect width="544" height="3" x="238" y="196.5" rx="1.5" transform="rotate(45, 510, 198)" opacity="0.61"></rect><rect width="169" height="3" x="412.5" y="488.5" rx="1.5" transform="rotate(45, 497, 490)" opacity="0.59"></rect><rect width="331" height="3" x="504.5" y="303.5" rx="1.5" transform="rotate(45, 670, 305)" opacity="0.92"></rect><rect width="81" height="3" x="666.5" y="248.5" rx="1.5" transform="rotate(45, 707, 250)" opacity="0.24"></rect><rect width="310" height="3" x="579" y="774.5" rx="1.5" transform="rotate(45, 734, 776)" opacity="0.72"></rect><rect width="154" height="3" x="443" y="263.5" rx="1.5" transform="rotate(45, 520, 265)" opacity="0.50"></rect><rect width="210" height="3" x="269" y="188.5" rx="1.5" transform="rotate(45, 374, 190)" opacity="0.67"></rect><rect width="541" height="3" x="490.5" y="703.5" rx="1.5" transform="rotate(45, 761, 705)" opacity="0.45"></rect><rect width="445" height="3" x="120.5" y="358.5" rx="1.5" transform="rotate(45, 343, 360)" opacity="0.78"></rect><rect width="50" height="3" x="267" y="526.5" rx="1.5" transform="rotate(45, 292, 528)" opacity="0.13"></rect><rect width="706" height="3" x="213" y="739.5" rx="1.5" transform="rotate(45, 566, 741)" opacity="0.16"></rect><rect width="84" height="3" x="1" y="233.5" rx="1.5" transform="rotate(45, 43, 235)" opacity="0.48"></rect><rect width="396" height="3" x="36" y="248.5" rx="1.5" transform="rotate(45, 234, 250)" opacity="0.68"></rect><rect width="62" height="3" x="733" y="78.5" rx="1.5" transform="rotate(45, 764, 80)" opacity="0.74"></rect><rect width="668" height="3" x="417" y="585.5" rx="1.5" transform="rotate(45, 751, 587)" opacity="0.65"></rect><rect width="157" height="3" x="66.5" y="196.5" rx="1.5" transform="rotate(45, 145, 198)" opacity="0.46"></rect><rect width="173" height="3" x="355.5" y="364.5" rx="1.5" transform="rotate(45, 442, 366)" opacity="0.88"></rect><rect width="453" height="3" x="-172.5" y="726.5" rx="1.5" transform="rotate(45, 54, 728)" opacity="0.29"></rect><rect width="239" height="3" x="334.5" y="413.5" rx="1.5" transform="rotate(45, 454, 415)" opacity="0.48"></rect><rect width="150" height="3" x="697" y="461.5" rx="1.5" transform="rotate(45, 772, 463)" opacity="0.09"></rect><rect width="126" height="3" x="96" y="401.5" rx="1.5" transform="rotate(45, 159, 403)" opacity="0.92"></rect><rect width="514" height="3" x="2" y="49.5" rx="1.5" transform="rotate(45, 259, 51)" opacity="0.35"></rect><rect width="317" height="3" x="449.5" y="409.5" rx="1.5" transform="rotate(45, 608, 411)" opacity="0.67"></rect><rect width="284" height="3" x="281" y="475.5" rx="1.5" transform="rotate(45, 423, 477)" opacity="0.46"></rect><rect width="771" height="3" x="-16.5" y="613.5" rx="1.5" transform="rotate(45, 369, 615)" opacity="0.92"></rect><rect width="141" height="3" x="592.5" y="734.5" rx="1.5" transform="rotate(45, 663, 736)" opacity="0.92"></rect><rect width="204" height="3" x="171" y="336.5" rx="1.5" transform="rotate(45, 273, 338)" opacity="0.21"></rect><rect width="469" height="3" x="200.5" y="132.5" rx="1.5" transform="rotate(45, 435, 134)" opacity="0.74"></rect><rect width="292" height="3" x="628" y="315.5" rx="1.5" transform="rotate(45, 774, 317)" opacity="0.92"></rect><rect width="149" height="3" x="351.5" y="734.5" rx="1.5" transform="rotate(45, 426, 736)" opacity="0.11"></rect><rect width="85" height="3" x="693.5" y="360.5" rx="1.5" transform="rotate(45, 736, 362)" opacity="0.60"></rect><rect width="82" height="3" x="571" y="106.5" rx="1.5" transform="rotate(45, 612, 108)" opacity="0.39"></rect><rect width="311" height="3" x="231.5" y="408.5" rx="1.5" transform="rotate(45, 387, 410)" opacity="0.91"></rect><rect width="653" height="3" x="33.5" y="58.5" rx="1.5" transform="rotate(45, 360, 60)" opacity="0.48"></rect><rect width="455" height="3" x="11.5" y="432.5" rx="1.5" transform="rotate(45, 239, 434)" opacity="0.20"></rect><rect width="146" height="3" x="599" y="382.5" rx="1.5" transform="rotate(45, 672, 384)" opacity="0.27"></rect><rect width="407" height="3" x="-27.5" y="749.5" rx="1.5" transform="rotate(45, 176, 751)" opacity="0.65"></rect><rect width="49" height="3" x="47.5" y="537.5" rx="1.5" transform="rotate(45, 72, 539)" opacity="0.63"></rect><rect width="115" height="3" x="709.5" y="206.5" rx="1.5" transform="rotate(45, 767, 208)" opacity="0.13"></rect><rect width="175" height="3" x="416.5" y="323.5" rx="1.5" transform="rotate(45, 504, 325)" opacity="0.12"></rect><rect width="387" height="3" x="332.5" y="428.5" rx="1.5" transform="rotate(45, 526, 430)" opacity="0.24"></rect><rect width="287" height="3" x="-104.5" y="392.5" rx="1.5" transform="rotate(45, 39, 394)" opacity="0.11"></rect><rect width="82" height="3" x="614" y="639.5" rx="1.5" transform="rotate(45, 655, 641)" opacity="0.40"></rect><rect width="257" height="3" x="-15.5" y="450.5" rx="1.5" transform="rotate(45, 113, 452)" opacity="0.26"></rect><rect width="46" height="3" x="77" y="315.5" rx="1.5" transform="rotate(45, 100, 317)" opacity="0.35"></rect><rect width="136" height="3" x="332" y="323.5" rx="1.5" transform="rotate(45, 400, 325)" opacity="0.85"></rect><rect width="320" height="3" x="49" y="553.5" rx="1.5" transform="rotate(45, 209, 555)" opacity="0.33"></rect><rect width="203" height="3" x="511.5" y="238.5" rx="1.5" transform="rotate(45, 613, 240)" opacity="0.78"></rect><rect width="240" height="3" x="-61" y="143.5" rx="1.5" transform="rotate(45, 59, 145)" opacity="0.85"></rect><rect width="686" height="3" x="-245" y="621.5" rx="1.5" transform="rotate(45, 98, 623)" opacity="0.52"></rect><rect width="235" height="3" x="391.5" y="375.5" rx="1.5" transform="rotate(45, 509, 377)" opacity="0.70"></rect><rect width="80" height="3" x="12" y="48.5" rx="1.5" transform="rotate(45, 52, 50)" opacity="0.60"></rect><rect width="453" height="3" x="-195.5" y="319.5" rx="1.5" transform="rotate(45, 31, 321)" opacity="1.00"></rect><rect width="197" height="3" x="397.5" y="568.5" rx="1.5" transform="rotate(45, 496, 570)" opacity="0.85"></rect><rect width="222" height="3" x="323" y="249.5" rx="1.5" transform="rotate(45, 434, 251)" opacity="0.63"></rect><rect width="648" height="3" x="-7" y="738.5" rx="1.5" transform="rotate(45, 317, 740)" opacity="0.86"></rect><rect width="520" height="3" x="246" y="660.5" rx="1.5" transform="rotate(45, 506, 662)" opacity="0.20"></rect><rect width="234" height="3" x="583" y="468.5" rx="1.5" transform="rotate(45, 700, 470)" opacity="0.34"></rect><rect width="135" height="3" x="490.5" y="338.5" rx="1.5" transform="rotate(45, 558, 340)" opacity="0.18"></rect><rect width="328" height="3" x="-135" y="471.5" rx="1.5" transform="rotate(45, 29, 473)" opacity="0.94"></rect><rect width="392" height="3" x="282" y="41.5" rx="1.5" transform="rotate(45, 478, 43)" opacity="0.50"></rect><rect width="196" height="3" x="488" y="495.5" rx="1.5" transform="rotate(45, 586, 497)" opacity="0.08"></rect><rect width="175" height="3" x="511.5" y="38.5" rx="1.5" transform="rotate(45, 599, 40)" opacity="0.80"></rect><rect width="279" height="3" x="555.5" y="35.5" rx="1.5" transform="rotate(45, 695, 37)" opacity="0.16"></rect><rect width="407" height="3" x="170.5" y="524.5" rx="1.5" transform="rotate(45, 374, 526)" opacity="0.55"></rect><rect width="354" height="3" x="429" y="308.5" rx="1.5" transform="rotate(45, 606, 310)" opacity="0.53"></rect><rect width="287" height="3" x="191.5" y="263.5" rx="1.5" transform="rotate(45, 335, 265)" opacity="0.50"></rect></g></svg>